<svg viewBox="0 0 104 104" xmlns="http://www.w3.org/2000/svg" xmlns:xlink="http://www.w3.org/1999/xlink"><linearGradient id="a" gradientUnits="userSpaceOnUse" x1="30.83" x2="73.17" y1="69.01" y2="26.67"><stop offset="0" stop-color="#f0b90b"/><stop offset=".27" stop-color="#f1bc10"/><stop offset=".59" stop-color="#f4c61f"/><stop offset=".94" stop-color="#fad737"/><stop offset=".99" stop-color="#fbda3c"/></linearGradient><path d="m69.7 40.43v6.86a4.54 4.54 0 0 1 -9.08 0v-6.86l-8.62-8.62-8.62 8.62v6.86a4.54 4.54 0 1 1 -9.07 0v-6.86l-8.62-8.62v32.05h52.63v-32zm-17.7 11.4-3.69-3.7 3.69-3.7 3.7 3.7z" fill="url(#a)"/><g fill="#212833"><path d="m25.68 66.38h52.63v2.5h-52.63z"/><path d="m29.25 57.1h2.5v2.5h-2.5z" transform="matrix(.70710678 -.70710678 .70710678 .70710678 -32.32 38.65)"/><path d="m36.41 57.1h2.5v2.5h-2.5z" transform="matrix(.70710678 -.70710678 .70710678 .70710678 -30.23 43.72)"/><path d="m43.58 57.1h2.5v2.5h-2.5z" transform="matrix(.70710678 -.70710678 .70710678 .70710678 -28.13 48.79)"/><path d="m50.75 57.1h2.5v2.5h-2.5z" transform="matrix(.70710678 -.70710678 .70710678 .70710678 -26.03 53.86)"/><path d="m57.92 57.1h2.5v2.5h-2.5z" transform="matrix(.70710678 -.70710678 .70710678 .70710678 -23.93 58.93)"/><path d="m65.09 57.1h2.5v2.5h-2.5z" transform="matrix(.70710678 -.70710678 .70710678 .70710678 -21.83 64)"/><path d="m72.25 57.1h2.5v2.5h-2.5z" transform="matrix(.70710678 -.70710678 .70710678 .70710678 -19.73 69.06)"/></g><path d="m81.47 24.32-1.77-1.76 1.77-1.77 1.77 1.77zm3.89-3.88-1.77-1.77 1.77-1.77 1.76 1.77z" fill="#e0e0e0"/><path d="m18.69 87.12-1.77-1.76 1.77-1.77 1.76 1.76zm3.89-3.89-1.77-1.76 1.77-1.77 1.76 1.77z" fill="#e0e0e0"/><path d="m22.54 24.33-1.76-1.76 1.76-1.77 1.77 1.77zm-3.89-3.89-1.76-1.76 1.76-1.77 1.77 1.77z" fill="#e0e0e0"/><path d="m85.34 87.11-1.77-1.76 1.77-1.77 1.77 1.77zm-3.89-3.89-1.77-1.76 1.77-1.77 1.77 1.77z" fill="#e0e0e0"/><path d="m53.26 11.6h-2.5v-2.5h2.5zm0-5.5h-2.5v-2.5h2.5z" fill="#e0e0e0"/><path d="m53.27 100.4h-2.5v-2.5h2.5zm0-5.5h-2.5v-2.5h2.5z" fill="#e0e0e0"/><path d="m11.6 53.27h-2.5v-2.5h2.5zm-5.5 0h-2.5v-2.5h2.5z" fill="#e0e0e0"/><path d="m100.4 53.26h-2.5v-2.5h2.5zm-5.5 0h-2.5v-2.5h2.5z" fill="#e0e0e0"/><path d="m0 0h104v104h-104z" fill="none"/></svg>