<svg viewBox="0 0 104 104" xmlns="http://www.w3.org/2000/svg"><g fill="#f0b90b"><path d="m78.84 22-1.76 1.77-1.77-1.77 1.77-1.77zm3.74-1.77-1.77 1.77 1.77 1.77 1.76-1.77zm5.5 0-1.77 1.77 1.77 1.77 1.76-1.77zm-7.27 7.27 1.77 1.77 1.76-1.77-1.76-1.77zm0-11 1.77 1.77 1.76-1.77-1.76-1.77z"/><path d="m19.7 79.1h2.5v2.5h-2.5z" transform="matrix(.70710678 .70710678 -.70710678 .70710678 62.95 8.72)"/><path d="m12.7 72.1h2.5v2.5h-2.5z" transform="matrix(.70710678 .70710678 -.70710678 .70710678 55.95 11.62)"/></g><path d="m34.67 72.1h2.5v2.5h-2.5z" fill="#e0e0e0" transform="matrix(.70710678 .70710678 -.70710678 .70710678 62.38 -3.92)"/><path d="m63.3 63.53-1.77 1.77 1.77 1.77 1.77-1.77zm3.89-3.89-1.77 1.77 1.77 1.77 1.81-1.77zm3.89-3.89-1.77 1.77 1.77 1.77 1.77-1.77zm3.92-3.89-1.8 1.77 1.8 1.77 1.77-1.77z" fill="#212833"/><path d="m56.48 90.49-.27-2.49c.83-.09 1.66-.21 2.48-.35l.43 2.46c-.87.16-1.76.29-2.64.38zm5.77-1-.62-2.49c.8-.2 1.61-.44 2.4-.7l.78 2.38c-.81.32-1.7.54-2.56.76zm5.57-1.86-1-2.31c.77-.32 1.54-.67 2.28-1l1.11 2.24c-.76.3-1.58.68-2.39 1.02zm5.23-2.65-1.28-2.14c.71-.43 1.42-.88 2.11-1.36l1.42 2.06c-.73.46-1.49.94-2.25 1.39zm4.81-3.36-1.58-1.94c.65-.52 1.29-1.08 1.9-1.64l1.69 1.83c-.65.56-1.32 1.13-2.01 1.7zm4.28-4-1.84-1.7q.86-.98 1.7-1.92l1.94 1.58c-.61.65-1.2 1.33-1.8 1.98zm3.67-4.62-2.06-1.42c.47-.69.93-1.4 1.36-2.11l2.14 1.29c-.45.74-.94 1.5-1.44 2.24zm3-5-2.24-1.11c.37-.75.72-1.51 1-2.28l2.3 1c-.32.72-.69 1.54-1.08 2.33zm2.19-5.48-2.37-.78c.26-.8.5-1.6.7-2.41l2.42.63c-.21.85-.46 1.71-.75 2.56zm1.43-5.69-2.43-.43c.14-.82.26-1.66.35-2.48l2.49.27c-.12.88-.25 1.81-.4 2.64z" fill="#e0e0e0"/><path d="m13.67 45.43-2.49-.27c.1-.89.23-1.77.38-2.65l2.44.49c-.12.77-.24 1.6-.33 2.43zm1-5.42-2.42-.62c.22-.86.47-1.72.75-2.56l2.37.78c-.27.79-.51 1.6-.71 2.39zm1.75-5.22-2.3-1c.34-.82.71-1.63 1.1-2.43l2.24 1.12c-.38.78-.73 1.52-1.05 2.31zm2.48-4.91-2.15-1.28c.45-.76.94-1.52 1.44-2.24l2.06 1.42c-.47.68-.93 1.39-1.36 2.1zm3.16-4.51-1.95-1.57c.56-.69 1.15-1.37 1.75-2l1.84 1.7c-.57.59-1.12 1.23-1.65 1.87zm3.77-4-1.69-1.83c.65-.6 1.32-1.19 2-1.75l1.58 1.94c-.65.51-1.29 1.06-1.9 1.62zm4.3-3.44-1.43-2.08c.73-.5 1.49-1 2.25-1.44l1.28 2.14c-.71.45-1.42.89-2.11 1.36zm4.75-2.8-1.11-2.24c.79-.39 1.61-.76 2.42-1.1l1 2.3c-.81.3-1.58.65-2.32 1.02zm5.12-2.13-.78-2.37c.84-.28 1.7-.53 2.56-.75l.62 2.42c-.83.23-1.64.46-2.4.7zm5.34-1.33-.43-2.47c.87-.15 1.75-.27 2.64-.37l.27 2.49c-.82.11-1.7.22-2.51.37z" fill="#e0e0e0"/><path d="m34.28 33.5-9.12 12.57h13.9zm5.72 15.07h-14.27l23 23zm-5.72-15.07-9.12 12.57h13.9zm0 0-9.12 12.57h13.9zm5.72 15.07h-14.27l23 23zm0 0h-14.27l23 23zm-5.72-15.07-9.12 12.57h13.9zm0 0-9.12 12.57h13.9zm5.72 15.07h-14.27l23 23zm2.67 0 9.33 24.54 9.6-24.54zm0 0 9.33 24.54 9.6-24.54zm-2.67 0h-14.27l23 23zm-5.72-15.07-9.12 12.57h13.9zm0 0-9.12 12.57h13.9zm5.72 15.07h-14.27l23 23zm2.67 0 9.33 24.54 9.6-24.54zm27.33-14.66-4.73 12.16h13.57zm0 0-4.73 12.16h13.57zm-18 39.2 9.6-24.54h-18.92zm-26.27-24.54 23 23-8.73-23zm8.55-15.07-9.12 12.57h13.9zm-34.28-33.5v104h104v-104zm78.18 52.19-1.77-1.77 1.86-1.85h-14l-9 22.94 2.32-2.32 1.76-1.77 1.77 1.77-1.71 1.81-7.41 7.36-30.93-30.91 12.59-17.37h36.67l12.59 17.37zm-12.91-6.12h13.57l-8.84-12.16zm-28.67-13.49 5.13 13.49h20.86l5.27-13.49zm15.4 40.53 9.6-24.54h-18.92zm-26.27-24.54 23 23-8.73-23zm8.55-15.07-9.12 12.57h13.9zm0 0-9.12 12.57h13.9zm5.72 15.07h-14.27l23 23zm2.67 0 9.33 24.54 9.6-24.54zm27.33-14.66-4.73 12.16h13.57zm-27.32 14.66 9.32 24.54 9.6-24.54zm-2.67 0h-14.28l23 23zm-5.73-15.07-9.12 12.57h13.9zm0 0-9.12 12.57h13.9zm5.72 15.07h-14.27l23 23zm2.67 0 9.33 24.54 9.6-24.54zm0 0 9.33 24.54 9.6-24.54zm-2.67 0h-14.27l23 23zm-5.72-15.07-9.12 12.57h13.9zm0 0-9.12 12.57h13.9zm5.72 15.07h-14.27l23 23zm-5.72-15.07-9.12 12.57h13.9zm5.72 15.07h-14.27l23 23z" fill="none"/><path d="m70.33 30.08h-36.67l-12.59 17.37 30.93 30.91 7.4-7.4 1.77-1.76-1.77-1.77-1.75 1.77-2.33 2.32 9-22.94h14l-1.86 1.85 1.77 1.77 4.75-4.74zm-36 3.42 4.78 12.57h-13.95zm-8.6 15.07h14.27l8.75 23zm26.27 24.54-9.32-24.54h18.93zm10.58-27h-20.85l-5.13-13.53h31.26zm2.68 0 4.74-12.2 8.81 12.16z" fill="#212833"/></svg>