<svg viewBox="0 0 104 104" xmlns="http://www.w3.org/2000/svg" xmlns:xlink="http://www.w3.org/1999/xlink"><linearGradient id="a" gradientUnits="userSpaceOnUse" x1="48.39" x2="65.32" y1="46.36" y2="29.43"><stop offset="0" stop-color="#f0b90b"/><stop offset=".27" stop-color="#f1bc10"/><stop offset=".59" stop-color="#f4c61f"/><stop offset=".94" stop-color="#fad737"/><stop offset=".99" stop-color="#fbda3c"/></linearGradient><path d="m78.35 46.65v-16.44h-10.07v-4.39h-6.57v2.5h4.07v21.68a13.79 13.79 0 0 1 -27.58 0v-24.17h-2.5v4.38h-10.06v16.44l14.83 14.83a16.22 16.22 0 0 0 10.27 4.72v9.61h-12.54v2.5h27.58v-2.5h-12.54v-9.61a16.19 16.19 0 0 0 10.28-4.73zm-10.07 3.35v-17.29h7.57v12.91l-8 8a16 16 0 0 0 .43-3.62zm-40.14-4.38v-12.91h7.56v17.29a15.94 15.94 0 0 0 .41 3.62z" fill="#212833"/><path d="m41.15 25.83h2.5v2.5h-2.5z" fill="#212833"/><path d="m46.57 25.83h2.5v2.5h-2.5z" fill="#212833"/><path d="m61.71 25.83v24.13l-4.86-4.86-4.86 4.86v-24.13z" fill="url(#a)"/><g fill="#e0e0e0"><path d="m51.59 3.81h2.5v4.58h-2.5z" transform="matrix(.70710678 -.70710678 .70710678 .70710678 11.17 39.15)"/><path d="m34.3 12.65h4.58v2.5h-4.58z" transform="matrix(.70723018 -.70698336 .70698336 .70723018 .88 29.94)"/><path d="m17.04 10.05h2.5v2.5h-2.5z" transform="matrix(.62018985 -.78445175 .78445175 .62018985 -1.92 18.64)"/><path d="m70.34 9.09h2.5v2.5h-2.5z" transform="matrix(.62018985 -.78445175 .78445175 .62018985 19.08 60.09)"/><path d="m88.49 34.43h2.5v2.5h-2.5z" transform="matrix(.62018985 -.78445175 .78445175 .62018985 6.09 83.95)"/><path d="m96.38 59.51h2.5v2.5h-2.5z" transform="matrix(.62018985 -.78445175 .78445175 .62018985 -10.58 99.66)"/><path d="m75.61 79.93h2.5v2.5h-2.5z" transform="matrix(.62018985 -.78445175 .78445175 .62018985 -34.49 91.13)"/><path d="m11.52 60.28h2.5v2.5h-2.5z" transform="matrix(.62018985 -.78445175 .78445175 .62018985 -43.42 33.39)"/><path d="m88.49 92.34h2.5v2.5h-2.5z" transform="matrix(.62018985 -.78445175 .78445175 .62018985 -39.34 105.95)"/><path d="m6.83 42.74h2.5v4.58h-2.5z" transform="matrix(.70710678 -.70710678 .70710678 .70710678 -29.48 18.91)"/><path d="m22.11 88.2h2.5v4.58h-2.5z" transform="matrix(.70710678 -.70710678 .70710678 .70710678 -57.15 43.02)"/><path d="m78.01 61.06h2.5v4.58h-2.5z" transform="matrix(.70710678 -.70710678 .70710678 .70710678 -21.58 74.6)"/><path d="m23.36 69.55h4.58v2.5h-4.58z"/><path d="m85.82 14.18h2.5v4.58h-2.5z"/></g><path d="m0 0h104v104h-104z" fill="none"/></svg>