<svg width="27" height="35" viewBox="0 0 27 35" fill="none" xmlns="http://www.w3.org/2000/svg">
<path fill-rule="evenodd" clip-rule="evenodd" d="M14.9289 0.196386L10.7064 3.02536C10.5673 3.1185 10.4839 3.27483 10.4839 3.44217V33.7786C10.4839 34.0557 10.7084 34.2803 10.9854 34.2803H12.4808C12.8559 34.2803 13.2603 34.1328 13.446 34.0456C13.4683 34.0351 13.4888 34.0228 13.509 34.0086C14.3526 33.4144 16.08 32.1684 16.4747 31.7718C16.8741 31.3704 16.9739 30.9356 16.9739 30.7683V1.16756C16.9739 -0.200012 15.7122 -0.093589 15.0312 0.144453C14.9949 0.157153 14.9608 0.174964 14.9289 0.196386ZM0.213042 9.54653L4.89901 6.25007C4.96042 6.20687 5.03045 6.17716 5.10505 6.1687C5.62762 6.10938 6.48999 6.19097 6.48999 6.937V23.7443C6.48999 24.246 6.24037 25.2495 5.24191 25.2495H1.24807C0.832048 25.2495 0 25.0488 0 24.246V9.9537C0 9.7904 0.0794782 9.64049 0.213042 9.54653ZM26.7453 25.3994L22.0594 28.6959C21.998 28.7391 21.9279 28.7688 21.8533 28.7772C21.3308 28.8366 20.4684 28.755 20.4684 28.0089V11.2016C20.4684 10.6999 20.718 9.69648 21.7165 9.69648H25.7103C26.1263 9.69648 26.9584 9.89716 26.9584 10.6999V24.9922C26.9584 25.1555 26.8789 25.3055 26.7453 25.3994Z" fill="#0051F4"/>
</svg>
